<?xml version="1.0" encoding="iso-8859-1"?>
<!-- Generator: Adobe Illustrator 19.0.0, SVG Export Plug-In . SVG Version: 6.00 Build 0)  -->
<svg version="1.1" id="Capa_1" xmlns="http://www.w3.org/2000/svg" xmlns:xlink="http://www.w3.org/1999/xlink" x="0px" y="0px"
	 viewBox="0 0 480 480" style="enable-background:new 0 0 480 480;" xml:space="preserve">
<g>
	<g>
		<path d="M472,432h-16V176c0-4.418-3.582-8-8-8h-48v-64h8c4.418,0,8-3.582,8-8V56c0-4.418-3.582-8-8-8h-80c-4.418,0-8,3.582-8,8v40
			c0,4.418,3.582,8,8,8h8v64h-48c-4.418,0-8,3.582-8,8v256h-23.936l15.872-127.008c0.548-4.384-2.562-8.382-6.946-8.93
			c-0.328-0.041-0.659-0.062-0.99-0.062h-8v-84.744c-0.555-17.916-14.188-32.704-32-34.712V72c0-4.418-3.582-8-8-8h-40
			c-4.418,0-8,3.582-8,8v104.544c-5.712,0.779-11.178,2.824-16,5.984V176c-0.024-19.001-13.389-35.373-32-39.2V8
			c0-4.418-3.582-8-8-8H64c-4.418,0-8,3.582-8,8v128.8c-18.611,3.827-31.976,20.199-32,39.2v256H8c-4.418,0-8,3.582-8,8v32
			c0,4.418,3.582,8,8,8h464c4.418,0,8-3.582,8-8v-32C480,435.582,476.418,432,472,432z M336,64h64v24h-64V64z M384,104v64h-32v-64
			H384z M296,184h144v248H296V184z M184,80h24v16h-24V80z M184,112h24v64h-24V112z M152,211.256
			c0.733-11.286,10.419-19.876,21.712-19.256h44.576c11.293-0.62,20.979,7.97,21.712,19.256V296h-24v-41
			c-0.026-21.528-17.472-38.974-39-39h-25V211.256z M152,232h25c12.695,0.018,22.982,10.305,23,23v41h-48V232z M254.936,312l-15,120
			h-87.872l-15-120H254.936z M72,16h32v16H72V16z M72,48h32v88H72V48z M40,192h48v208H40V192z M40,416h56c4.418,0,8-3.582,8-8V184
			c0-4.418-3.582-8-8-8H40c0-13.255,10.745-24,24-24h48c13.255,0,24,10.745,24,24v120h-8c-4.418,0.001-7.999,3.584-7.998,8.002
			c0,0.331,0.021,0.661,0.062,0.99L135.936,432H40V416z M464,464H16v-16h448V464z"/>
	</g>
</g>
<g>
	<g>
		<path d="M232.324,376.112c-4.236-1.256-8.688,1.16-9.944,5.396c-0.043,0.144-0.081,0.29-0.116,0.436l-2.52,9.496
			c-4.144,12.623-17.736,19.496-30.359,15.352c-7.741-2.541-13.669-8.828-15.753-16.704l-12.288-63.6
			c-0.968-4.311-5.247-7.021-9.558-6.053c-4.125,0.926-6.818,4.903-6.146,9.077l12.28,63.608c3.931,18.272,20.24,31.21,38.928,30.88
			c17.753,0.295,33.488-11.38,38.352-28.456l2.52-9.488C238.976,381.82,236.56,377.368,232.324,376.112z"/>
	</g>
</g>
<g>
	<g>
		<path d="M424,208H312c-4.418,0-8,3.582-8,8v136c0,4.418,3.582,8,8,8h112c4.418,0,8-3.582,8-8V216C432,211.582,428.418,208,424,208
			z M416,344h-96V224h96V344z"/>
	</g>
</g>
<g>
</g>
<g>
</g>
<g>
</g>
<g>
</g>
<g>
</g>
<g>
</g>
<g>
</g>
<g>
</g>
<g>
</g>
<g>
</g>
<g>
</g>
<g>
</g>
<g>
</g>
<g>
</g>
<g>
</g>
</svg>
