<?xml version="1.0" encoding="utf-8"?>
<!-- Generator: Adobe Illustrator 16.0.0, SVG Export Plug-In . SVG Version: 6.00 Build 0)  -->
<!DOCTYPE svg PUBLIC "-//W3C//DTD SVG 1.1//EN" "http://www.w3.org/Graphics/SVG/1.1/DTD/svg11.dtd">
<svg version="1.1" id="Layer_1" xmlns="http://www.w3.org/2000/svg" xmlns:xlink="http://www.w3.org/1999/xlink" x="0px" y="0px"
	 width="50px" height="50px" viewBox="0 0 50 50" enable-background="new 0 0 50 50" xml:space="preserve">
<g>
	<path d="M22.552,25.926l-1.809,1.809c-0.098,0.098-0.098,0.256,0,0.354s0.256,0.098,0.354,0l2.391-2.391L22.552,25.926z"/>
	<path d="M21.791,29.194c0.164,0.164,0.501,0.163,0.811,0.026l0.132-0.282l0.443-1.837l-1.209,1.208
		C21.676,28.602,21.596,29,21.791,29.194z"/>
	<path d="M12.465,18.809l3.182-3.182c0.281-0.281,0.731-0.285,1.025-0.023l-4.031,4.031c-0.098,0.098-0.098,0.256,0,0.354
		c0.098,0.098,0.256,0.098,0.354,0l4.036-4.037l0.383,0.383l-4.037,4.037c-0.098,0.098-0.098,0.256,0,0.354s0.256,0.098,0.354,0
		l4.037-4.037l0.383,0.383l-4.037,4.036c-0.098,0.098-0.098,0.256,0,0.354c0.098,0.098,0.256,0.098,0.354,0l4.037-4.036l0.383,0.383
		l-4.037,4.037c-0.098,0.098-0.098,0.256,0,0.354s0.256,0.098,0.354,0l4.037-4.037l0.383,0.383l-4.036,4.037
		c-0.098,0.098-0.098,0.256,0,0.354c0.098,0.098,0.255,0.098,0.354,0l4.036-4.037l0.383,0.383l-4.037,4.037
		c-0.098,0.098-0.098,0.256,0,0.354s0.256,0.098,0.354,0l4.037-4.037l0.383,0.383l-4.037,4.036c-0.098,0.098-0.098,0.256,0,0.354
		c0.098,0.098,0.256,0.098,0.354,0l4.037-4.036l0.383,0.383l-4.037,4.037c-0.098,0.098-0.098,0.256,0,0.354s0.256,0.098,0.354,0
		l4.037-4.037l0.383,0.383l-3.467,3.467l1.324-0.617l2.496-2.497l0.383,0.383l-1.445,1.445l1.324-0.617l0.474-0.474l0.168,0.168
		l1.067-0.652l0.486-0.623l-7.967-7.967c-0.292-0.292-0.769-0.292-1.061,0l-4.596,4.596c-0.292,0.292-0.371,0.689-0.177,0.884
		S12.174,19.1,12.465,18.809z"/>
	<path d="M38.408,34.498c-1.415-1.415-10.077-10.076-10.077-10.076c-0.163-0.164-0.383-0.383-0.598-0.598l-0.622,0.486l-0.703,1.157
		l-1.064,2.285c0.702-0.294,1.372-0.478,1.75-0.325c3.271,1.326,4.905,7.733,6.364,9.192C34.917,38.078,39.292,35.381,38.408,34.498
		z"/>
	<path d="M20.007,26.998c-0.098,0.098-0.098,0.256,0,0.354c0.098,0.098,0.256,0.098,0.354,0l1.18-1.18L20.604,26.4L20.007,26.998z"
		/>
	<path d="M23.105,31.375l2.876-6.168l0.75-1.235l11.712-9.148l-0.136-0.292l-9.258,5.625l5.625-9.258l-0.292-0.136l-9.148,11.712
		L24,23.225l-6.169,2.876c-1-1.224-2.734-1.676-4.231-0.978c-1.77,0.825-2.538,2.937-1.713,4.707
		c0.826,1.77,2.937,2.538,4.707,1.713c1.77-0.825,2.538-2.938,1.713-4.707l1.75-0.816l4.138-1.008l-1.008,4.139L22.37,30.9
		c-1.77-0.826-3.881-0.057-4.706,1.713c-0.825,1.77-0.057,3.881,1.713,4.707c0.198,0.092,0.399,0.158,0.603,0.21l-0.466,2.038
		l1.113-0.203l0.2-1.721c1.349,0.015,2.651-0.737,3.256-2.038C24.781,34.109,24.329,32.375,23.105,31.375z M25.511,22.75
		c0.261-0.261,0.685-0.261,0.945,0s0.261,0.685,0,0.945c-0.261,0.261-0.685,0.261-0.946,0C25.25,23.435,25.25,23.011,25.511,22.75z
		 M16.215,30.734c-1.324,0.618-2.904,0.042-3.521-1.282c-0.618-1.324-0.042-2.903,1.282-3.521c1.325-0.619,2.905-0.043,3.522,1.281
		C18.116,28.537,17.541,30.116,16.215,30.734z M23.274,35.23c-0.617,1.324-2.196,1.899-3.52,1.282
		c-1.325-0.618-1.9-2.197-1.283-3.521c0.619-1.326,2.198-1.901,3.522-1.283C23.317,32.325,23.893,33.905,23.274,35.23z"/>
</g>
</svg>
