<?xml version="1.0" encoding="iso-8859-1"?>
<!-- Generator: Adobe Illustrator 19.0.0, SVG Export Plug-In . SVG Version: 6.00 Build 0)  -->
<svg version="1.1" id="Capa_1" xmlns="http://www.w3.org/2000/svg" xmlns:xlink="http://www.w3.org/1999/xlink" x="0px" y="0px"
	 viewBox="0 0 470.002 470.002" style="enable-background:new 0 0 470.002 470.002;" xml:space="preserve">
<g>
	<path d="M416.675,231.475c13.861,0,25.138-11.259,25.138-25.099c0-13.84-11.276-25.099-25.138-25.099h-5.755
		c-2.033-14.256-5.767-27.971-10.998-40.933l4.976-2.867c5.821-3.354,9.983-8.771,11.721-15.254
		c1.734-6.475,0.841-13.238-2.519-19.041c-6.93-11.977-22.328-16.099-34.328-9.184l-5.054,2.912
		c-8.778-11.133-18.861-21.195-30.016-29.955l2.901-5.015c3.359-5.804,4.253-12.567,2.518-19.043
		c-1.737-6.482-5.9-11.899-11.721-15.251c-11.999-6.913-27.397-2.793-34.329,9.184l-2.88,4.978
		c-12.999-5.225-26.754-8.955-41.053-10.985v-5.724C260.139,11.259,248.862,0,235.001,0c-13.861,0-25.137,11.259-25.137,25.099
		v5.724c-14.299,2.029-28.054,5.76-41.053,10.985l-2.881-4.978c-6.929-11.978-22.331-16.096-34.328-9.185
		c-5.821,3.354-9.984,8.771-11.721,15.253c-1.735,6.476-0.841,13.238,2.518,19.042l2.902,5.015
		c-11.155,8.76-21.238,18.822-30.016,29.954l-5.055-2.912c-11.999-6.913-27.398-2.792-34.329,9.184
		c-3.358,5.804-4.252,12.567-2.517,19.042c1.737,6.482,5.9,11.899,11.721,15.252l4.976,2.867
		c-5.23,12.962-8.965,26.677-10.998,40.934h-5.755c-13.861,0-25.137,11.259-25.137,25.099c0,13.839,11.276,25.099,25.137,25.099
		h5.755c2.033,14.256,5.768,27.972,10.998,40.934l-4.976,2.866c-5.821,3.354-9.984,8.77-11.721,15.252
		c-1.735,6.476-0.841,13.238,2.517,19.043c4.651,8.039,13.117,12.537,21.81,12.537c4.259,0,8.574-1.081,12.519-3.354l5.054-2.912
		c8.778,11.133,18.86,21.195,30.016,29.954l-2.901,5.015c-3.358,5.804-4.252,12.567-2.518,19.042
		c1.737,6.483,5.899,11.9,11.721,15.254c3.946,2.273,8.259,3.353,12.518,3.353c8.692,0,17.16-4.5,21.81-12.537l2.881-4.978
		c4.251,1.709,8.58,3.263,12.985,4.645l-22.816,84.965c-1.075,4,1.298,8.114,5.298,9.188c0.652,0.175,1.306,0.259,1.95,0.259
		c3.31,0,6.339-2.208,7.238-5.557l22.821-84.984c4.465,0.994,8.993,1.818,13.577,2.468v5.724c0,13.839,11.276,25.099,25.137,25.099
		c13.861,0,25.138-11.259,25.138-25.099v-5.724c4.583-0.651,9.111-1.474,13.576-2.468l22.821,84.984
		c0.899,3.349,3.929,5.557,7.238,5.557c0.645,0,1.299-0.083,1.95-0.259c4-1.074,6.372-5.188,5.298-9.188l-22.816-84.965
		c4.405-1.382,8.734-2.937,12.986-4.645l2.88,4.978c4.651,8.039,13.117,12.538,21.811,12.537c4.258,0,8.572-1.08,12.517-3.353
		c5.822-3.354,9.984-8.771,11.722-15.252c1.735-6.476,0.842-13.238-2.517-19.043l-2.902-5.015
		c11.155-8.76,21.238-18.822,30.015-29.954l5.054,2.911c3.946,2.273,8.26,3.354,12.52,3.354c8.692,0,17.158-4.499,21.809-12.537
		c3.359-5.804,4.253-12.566,2.519-19.042c-1.737-6.483-5.899-11.9-11.721-15.254l-4.976-2.867
		c5.23-12.962,8.965-26.677,10.998-40.933H416.675z M416.675,196.277c5.59,0,10.138,4.53,10.138,10.099
		c0,5.568-4.548,10.099-10.138,10.099h-4.261c0.189-3.344,0.295-6.709,0.295-10.099c0-3.39-0.105-6.755-0.295-10.099H416.675z
		 M379.489,280.959l-14.094-8.12c9.174-17.852,14.774-37.821,15.85-58.962h16.284C396.424,237.968,390.034,260.704,379.489,280.959z
		 M276.205,330.899l-25.657-95.544c0.619-0.332,1.224-0.686,1.818-1.056l70.056,69.903
		C309.148,316.023,293.465,325.2,276.205,330.899z M235.001,337.506c-9.152,0-18.087-0.941-26.716-2.726l25.659-95.55
		c0.352,0.011,0.703,0.027,1.057,0.027c0.354,0,0.705-0.016,1.057-0.027l25.659,95.55
		C253.087,336.565,244.152,337.506,235.001,337.506z M147.579,304.202l70.056-69.903c0.594,0.37,1.199,0.724,1.818,1.056
		l-25.657,95.544C176.537,325.199,160.853,316.022,147.579,304.202z M110.198,247.508l95.777-25.607
		c0.33,0.612,0.681,1.211,1.047,1.799l-70.062,69.91C125.112,280.368,115.912,264.724,110.198,247.508z M72.474,213.876h16.285
		c1.076,21.141,6.676,41.111,15.85,58.962l-14.095,8.12C79.968,260.704,73.578,237.968,72.474,213.876z M90.514,131.794l14.095,8.12
		c-9.174,17.852-14.774,37.822-15.85,58.963H72.474C73.578,174.785,79.968,152.049,90.514,131.794z M227.501,44.219v16.216
		c-21.198,1.072-41.222,6.665-59.12,15.828l-8.128-14.047C180.558,51.693,203.35,45.318,227.501,44.219z M309.749,62.216
		l-8.128,14.047c-17.898-9.163-37.922-14.755-59.12-15.828V44.219C266.652,45.318,289.445,51.693,309.749,62.216z M359.804,165.245
		l-95.777,25.607c-0.33-0.612-0.681-1.21-1.047-1.799l70.063-69.909C344.89,132.385,354.09,148.028,359.804,165.245z
		 M397.528,198.876h-16.284c-1.076-21.141-6.676-41.111-15.85-58.963l14.094-8.12C390.034,152.049,396.424,174.785,397.528,198.876z
		 M103.568,206.376c0-9.128,0.943-18.04,2.73-26.647l95.792,25.611c-0.011,0.345-0.026,0.688-0.026,1.036
		c0,0.347,0.016,0.691,0.026,1.035l-95.792,25.611C104.51,224.416,103.568,215.504,103.568,206.376z M235.001,75.246
		c9.152,0,18.087,0.941,26.716,2.726l-25.658,95.55c-0.352-0.011-0.703-0.027-1.058-0.027c-0.354,0-0.705,0.016-1.057,0.027
		l-25.658-95.55C216.915,76.187,225.849,75.246,235.001,75.246z M235.001,224.258c-9.891,0-17.937-8.021-17.937-17.881
		s8.046-17.882,17.937-17.882s17.937,8.022,17.937,17.882S244.892,224.258,235.001,224.258z M267.912,205.341l95.792-25.611
		c1.788,8.607,2.73,17.519,2.73,26.647c0,9.128-0.943,18.04-2.73,26.647l-95.792-25.611c0.011-0.345,0.026-0.688,0.026-1.035
		C267.938,206.029,267.923,205.686,267.912,205.341z M252.366,178.453c-0.594-0.37-1.199-0.723-1.817-1.055l25.657-95.544
		c17.259,5.699,32.943,14.876,46.217,26.697L252.366,178.453z M193.797,81.854l25.657,95.544c-0.619,0.332-1.224,0.686-1.818,1.056
		l-70.056-69.903C160.854,96.73,176.537,87.553,193.797,81.854z M136.96,119.144l70.062,69.91c-0.367,0.588-0.718,1.187-1.047,1.799
		l-95.777-25.607C115.913,148.028,125.112,132.384,136.96,119.144z M333.042,293.608l-70.063-69.909
		c0.367-0.588,0.718-1.187,1.047-1.799l95.777,25.608C354.09,264.724,344.89,280.368,333.042,293.608z M387.261,106.995
		c4.843-2.792,11.061-1.133,13.857,3.699c1.349,2.332,1.708,5.047,1.012,7.647c-0.698,2.607-2.375,4.787-4.72,6.138l-3.719,2.142
		c-1.417-2.797-2.901-5.555-4.46-8.265c-0.099-0.217-0.207-0.432-0.328-0.643c-0.144-0.249-0.302-0.484-0.468-0.71
		c-1.566-2.667-3.2-5.287-4.899-7.863L387.261,106.995z M371.959,118.821l-14.104,8.125c-5.423-8.325-11.672-16.065-18.631-23.108
		c-0.206-0.272-0.425-0.538-0.672-0.786c-0.255-0.256-0.529-0.481-0.809-0.692c-7.053-6.939-14.805-13.171-23.141-18.58
		l8.136-14.062C342.46,82.367,359.279,99.146,371.959,118.821z M317.055,44.342c2.797-4.831,9.011-6.491,13.858-3.699
		c2.345,1.351,4.021,3.53,4.719,6.137c0.697,2.601,0.338,5.316-1.011,7.648l-2.162,3.736c-2.59-1.702-5.226-3.339-7.908-4.907
		c-0.22-0.162-0.449-0.315-0.691-0.455c-0.225-0.13-0.454-0.247-0.685-0.351c-2.705-1.549-5.457-3.023-8.248-4.431L317.055,44.342z
		 M224.864,25.099c0-5.568,4.547-10.099,10.137-10.099s10.138,4.53,10.138,10.099v4.237c-3.356-0.189-6.735-0.295-10.138-0.295
		c-3.403,0-6.781,0.106-10.137,0.295V25.099z M135.381,54.428c-1.349-2.332-1.708-5.047-1.012-7.647
		c0.699-2.607,2.375-4.787,4.719-6.138c4.847-2.792,11.062-1.132,13.857,3.699l2.128,3.678c-2.79,1.408-5.542,2.882-8.246,4.43
		c-0.232,0.105-0.462,0.222-0.687,0.352c-0.242,0.14-0.472,0.294-0.692,0.456c-2.681,1.568-5.316,3.204-7.906,4.906L135.381,54.428z
		 M147.264,69.719l8.136,14.062c-8.336,5.409-16.088,11.641-23.141,18.579c-0.28,0.211-0.554,0.436-0.809,0.692
		c-0.247,0.248-0.466,0.513-0.672,0.785c-6.959,7.043-13.209,14.784-18.632,23.109l-14.104-8.125
		C110.723,99.146,127.542,82.367,147.264,69.719z M72.592,124.48c-2.345-1.351-4.021-3.531-4.72-6.138
		c-0.697-2.6-0.337-5.316,1.012-7.647c2.795-4.832,9.012-6.49,13.858-3.699l3.725,2.146c-1.699,2.576-3.334,5.197-4.9,7.864
		c-0.167,0.226-0.325,0.461-0.468,0.71c-0.121,0.211-0.229,0.425-0.328,0.642c-1.559,2.71-3.043,5.468-4.46,8.265L72.592,124.48z
		 M53.327,216.475c-5.59,0-10.137-4.53-10.137-10.099c0-5.569,4.547-10.099,10.137-10.099h4.262
		c-0.189,3.344-0.295,6.709-0.295,10.099c0,3.39,0.106,6.755,0.295,10.099H53.327z M82.742,305.757
		c-4.846,2.791-11.063,1.132-13.858-3.699c-1.349-2.332-1.708-5.048-1.012-7.648c0.699-2.607,2.375-4.787,4.72-6.138l3.719-2.142
		c1.418,2.798,2.902,5.558,4.462,8.269c0.098,0.215,0.205,0.429,0.326,0.638c0.124,0.215,0.267,0.412,0.409,0.61
		c1.584,2.701,3.239,5.356,4.959,7.964L82.742,305.757z M98.043,293.932l14.104-8.125c5.424,8.326,11.673,16.067,18.633,23.11
		c0.205,0.272,0.424,0.537,0.671,0.784c0.255,0.255,0.528,0.48,0.808,0.692c7.053,6.939,14.805,13.171,23.141,18.58l-8.136,14.062
		C127.542,330.386,110.723,313.607,98.043,293.932z M152.946,368.411c-2.796,4.831-9.012,6.489-13.857,3.699
		c-2.345-1.351-4.021-3.531-4.72-6.138c-0.697-2.6-0.337-5.316,1.012-7.647l2.162-3.736c2.59,1.701,5.225,3.338,7.906,4.906
		c0.221,0.162,0.45,0.316,0.693,0.456c0.16,0.092,0.325,0.162,0.489,0.241c2.767,1.589,5.586,3.099,8.444,4.541L152.946,368.411z
		 M160.253,350.537l8.128-14.048c6.876,3.52,14.07,6.504,21.52,8.916l-4.21,15.678C176.863,358.276,168.36,354.738,160.253,350.537z
		 M204.39,349.285c7.51,1.6,15.227,2.633,23.111,3.032v16.216c-9.331-0.425-18.458-1.64-27.32-3.576L204.39,349.285z
		 M245.139,387.654c0,5.568-4.548,10.099-10.138,10.099s-10.137-4.53-10.137-10.099v-4.237c3.356,0.189,6.734,0.295,10.137,0.295
		c3.403,0,6.781-0.106,10.138-0.295V387.654z M242.501,368.533v-16.216c7.883-0.399,15.601-1.432,23.11-3.032l4.209,15.672
		C260.959,366.893,251.832,368.108,242.501,368.533z M280.1,345.405c7.45-2.412,14.645-5.396,21.521-8.916l8.128,14.047
		c-8.107,4.201-16.61,7.74-25.439,10.547L280.1,345.405z M334.62,358.324c1.35,2.332,1.709,5.048,1.012,7.648
		c-0.698,2.607-2.374,4.787-4.72,6.137c-4.846,2.792-11.063,1.131-13.857-3.699l-2.128-3.677c2.862-1.444,5.684-2.955,8.454-4.547
		c0.16-0.078,0.323-0.146,0.479-0.236c0.242-0.14,0.47-0.293,0.69-0.454c2.682-1.568,5.318-3.205,7.908-4.907L334.62,358.324z
		 M322.738,343.034l-8.136-14.062c8.336-5.409,16.088-11.641,23.141-18.579c0.281-0.211,0.554-0.437,0.81-0.693
		c0.248-0.248,0.467-0.514,0.672-0.786c6.958-7.042,13.208-14.783,18.631-23.108l14.104,8.125
		C359.279,313.607,342.46,330.386,322.738,343.034z M397.41,288.272c2.345,1.351,4.021,3.531,4.72,6.138
		c0.696,2.6,0.337,5.316-1.013,7.648c-2.795,4.83-9.011,6.49-13.856,3.698l-3.725-2.146c1.72-2.608,3.375-5.263,4.959-7.964
		c0.141-0.198,0.284-0.394,0.408-0.609c0.121-0.209,0.228-0.423,0.326-0.639c1.56-2.711,3.044-5.471,4.462-8.269L397.41,288.272z"/>
</g>
<g>
</g>
<g>
</g>
<g>
</g>
<g>
</g>
<g>
</g>
<g>
</g>
<g>
</g>
<g>
</g>
<g>
</g>
<g>
</g>
<g>
</g>
<g>
</g>
<g>
</g>
<g>
</g>
<g>
</g>
</svg>
