<?xml version="1.0" encoding="iso-8859-1"?>
<!-- Generator: Adobe Illustrator 19.0.0, SVG Export Plug-In . SVG Version: 6.00 Build 0)  -->
<svg version="1.1" id="Capa_1" xmlns="http://www.w3.org/2000/svg" xmlns:xlink="http://www.w3.org/1999/xlink" x="0px" y="0px"
	 viewBox="0 0 488 488" style="enable-background:new 0 0 488 488;" xml:space="preserve">
<g>
	<g>
		<path d="M240,80c-88.323,0.101-159.899,71.676-160,160c0,88.366,71.634,160,160,160s160-71.634,160-160S328.366,80,240,80z
			 M240,384c-79.529,0-144-64.471-144-144S160.471,96,240,96c79.491,0.093,143.907,64.509,144,144C384,319.529,319.529,384,240,384z
			"/>
	</g>
</g>
<g>
	<g>
		<path d="M240,128c-61.828,0.066-111.934,50.172-112,112c0,61.856,50.144,112,112,112s112-50.144,112-112S301.856,128,240,128z
			 M240,336c-53.019,0-96-42.981-96-96s42.981-96,96-96c52.996,0.057,95.943,43.004,96,96C336,293.019,293.019,336,240,336z"/>
	</g>
</g>
<g>
	<g>
		<path d="M56,128c-4.418,0-8,3.582-8,8v56h-8v-56c0-4.418-3.582-8-8-8s-8,3.582-8,8v56h-8v-56c0-4.418-3.582-8-8-8s-8,3.582-8,8v72
			h24v192c0,4.418,3.582,8,8,8s8-3.582,8-8V208h24v-72C64,131.582,60.418,128,56,128z"/>
	</g>
</g>
<g>
	<g>
		<path d="M488,180c0-28.672-17.944-52-40-52c-22.056,0-40,23.328-40,52c0,25.2,13.872,46.264,32.2,50.992
			c-0.087,0.332-0.154,0.668-0.2,1.008v168c0,4.418,3.582,8,8,8s8-3.582,8-8V232c-0.046-0.34-0.113-0.676-0.2-1.008
			C474.128,226.264,488,205.2,488,180z M448,216c-13.008,0-24-16.488-24-36c0-19.512,10.992-36,24-36s24,16.488,24,36
			C472,199.512,461.008,216,448,216z"/>
	</g>
</g>
<g>
</g>
<g>
</g>
<g>
</g>
<g>
</g>
<g>
</g>
<g>
</g>
<g>
</g>
<g>
</g>
<g>
</g>
<g>
</g>
<g>
</g>
<g>
</g>
<g>
</g>
<g>
</g>
<g>
</g>
</svg>
