<?xml version="1.0" encoding="iso-8859-1"?>
<!-- Generator: Adobe Illustrator 19.0.0, SVG Export Plug-In . SVG Version: 6.00 Build 0)  -->
<svg version="1.1" id="Capa_1" xmlns="http://www.w3.org/2000/svg" xmlns:xlink="http://www.w3.org/1999/xlink" x="0px" y="0px"
	 viewBox="0 0 480 480" style="enable-background:new 0 0 480 480;" xml:space="preserve">
<g>
	<g>
		<path d="M467.928,231.07c0.728,0,1.44,0.056,2.152,0.096l1.552,0.096c2.186,0.123,4.325-0.675,5.896-2.2
			c1.585-1.522,2.478-3.627,2.472-5.824v-31.096c0-4.418-3.582-8-8-8H337.16c-4.178-36.944,18.848-71.53,54.544-81.928
			c0.672-0.208,1.352-0.368,2.024-0.528l1.6-0.416c4.273-1.125,6.825-5.5,5.7-9.773c-0.031-0.116-0.064-0.232-0.1-0.347
			l-9.288-29.68c-0.641-2.055-2.083-3.765-4-4.744c-1.922-0.982-4.161-1.138-6.2-0.432l-376,128.272
			c-0.088,0-0.144,0.104-0.24,0.136c-0.528,0.237-1.029,0.529-1.496,0.872c-0.404,0.237-0.789,0.504-1.152,0.8
			c-0.337,0.374-0.642,0.775-0.912,1.2c-0.323,0.4-0.61,0.828-0.856,1.28c-0.159,0.431-0.28,0.875-0.36,1.328
			c-0.187,0.547-0.31,1.113-0.368,1.688c0,0.096-0.056,0.176-0.056,0.272v224c0,4.418,3.582,8,8,8h464c4.418,0,8-3.582,8-8v-31.096
			c0.005-4.418-3.573-8.004-7.992-8.008c-0.126,0-0.251,0.003-0.376,0.008l-1.552,0.096c-0.712,0.04-1.424,0.096-2.152,0.096
			c-41.548,1.121-76.183-31.561-77.472-73.104C391.766,262.607,426.395,229.948,467.928,231.07z M209.024,132.022l5.872,15.2
			c1.191,3.085,4.157,5.12,7.464,5.12c4.418,0.002,8.002-3.578,8.003-7.997c0-0.989-0.182-1.969-0.539-2.891l-5.64-14.624
			l154.64-52.8l4.376,14.152c-40.416,13.791-66.12,53.478-62.176,96H246.28l-7.824-20.312c-1.593-4.124-6.228-6.177-10.352-4.584
			c-4.124,1.593-6.177,6.228-4.584,10.352l5.6,14.512H56.224L209.024,132.022z M374.456,304.142
			c1.187,48.868,40.67,88.121,89.544,89.024v14.976H304v-24c0-4.418-3.582-8-8-8s-8,3.582-8,8v24H16v-208h272v24
			c0,4.418,3.582,8,8,8s8-3.582,8-8v-24h160v14.976C415.128,216.025,375.647,255.276,374.456,304.142z"/>
	</g>
</g>
<g>
	<g>
		<path d="M296,248.142c-4.418,0-8,3.582-8,8v32c0,4.418,3.582,8,8,8s8-3.582,8-8v-32C304,251.724,300.418,248.142,296,248.142z"/>
	</g>
</g>
<g>
	<g>
		<path d="M296,312.142c-4.418,0-8,3.582-8,8v32c0,4.418,3.582,8,8,8s8-3.582,8-8v-32C304,315.724,300.418,312.142,296,312.142z"/>
	</g>
</g>
<g>
	<g>
		<path d="M120,216.142H40c-4.418,0-8,3.582-8,8s3.582,8,8,8h80c4.418,0,8-3.582,8-8S124.418,216.142,120,216.142z"/>
	</g>
</g>
<g>
	<g>
		<path d="M168,248.142H40c-4.418,0-8,3.582-8,8s3.582,8,8,8h128c4.418,0,8-3.582,8-8S172.418,248.142,168,248.142z"/>
	</g>
</g>
<g>
	<g>
		<path d="M168,280.142H40c-4.418,0-8,3.582-8,8s3.582,8,8,8h128c4.418,0,8-3.582,8-8S172.418,280.142,168,280.142z"/>
	</g>
</g>
<g>
	<g>
		<path d="M168,312.142H40c-4.418,0-8,3.582-8,8s3.582,8,8,8h128c4.418,0,8-3.582,8-8S172.418,312.142,168,312.142z"/>
	</g>
</g>
<g>
	<g>
		<path d="M264,344.142h-88c-4.418,0-8,3.582-8,8s3.582,8,8,8h88c4.418,0,8-3.582,8-8S268.418,344.142,264,344.142z"/>
	</g>
</g>
<g>
	<g>
		<path d="M264,376.142h-88c-4.418,0-8,3.582-8,8s3.582,8,8,8h88c4.418,0,8-3.582,8-8S268.418,376.142,264,376.142z"/>
	</g>
</g>
<g>
	<g>
		<path d="M328,208.142c-4.418,0-8,3.582-8,8v88c0,4.418,3.582,8,8,8s8-3.582,8-8v-88C336,211.724,332.418,208.142,328,208.142z"/>
	</g>
</g>
<g>
	<g>
		<path d="M360,208.142c-4.418,0-8,3.582-8,8v32c0,4.418,3.582,8,8,8s8-3.582,8-8v-32C368,211.724,364.418,208.142,360,208.142z"/>
	</g>
</g>
<g>
	<g>
		<path d="M144,344.142H40c-4.418,0-8,3.582-8,8v32c0,4.418,3.582,8,8,8h104c4.418,0,8-3.582,8-8v-32
			C152,347.724,148.418,344.142,144,344.142z M136,376.142H48v-16h88V376.142z"/>
	</g>
</g>
<g>
</g>
<g>
</g>
<g>
</g>
<g>
</g>
<g>
</g>
<g>
</g>
<g>
</g>
<g>
</g>
<g>
</g>
<g>
</g>
<g>
</g>
<g>
</g>
<g>
</g>
<g>
</g>
<g>
</g>
</svg>
