<svg height="512pt" viewBox="0 -27 512 512" width="512pt" xmlns="http://www.w3.org/2000/svg"><path d="m502 0h-193.5c-21.996094 0-41.359375 11.429688-52.5 28.652344-11.140625-17.222656-30.503906-28.652344-52.5-28.652344h-193.5c-5.523438 0-10 4.476562-10 10v438c0 5.523438 4.476562 10 10 10h492c5.523438 0 10-4.476562 10-10v-438c0-5.523438-4.476562-10-10-10zm-193.5 20h183.5v365.5h-183.5c-16.394531 0-31.339844 6.347656-42.5 16.714844v-339.714844c0-23.433594 19.066406-42.5 42.5-42.5zm-288.5 0h183.5c23.433594 0 42.5 19.066406 42.5 42.5v339.714844c-11.160156-10.367188-26.105469-16.714844-42.5-16.714844h-183.5zm0 385.5h183.5c19.988281 0 36.789062 13.875 41.300781 32.5h-224.800781zm247.199219 32.5c4.511719-18.625 21.3125-32.5 41.300781-32.5h183.5v32.5zm0 0"/><path d="m55.804688 203h152c5.523437 0 10-4.476562 10-10s-4.476563-10-10-10h-142v-14.597656l40.148437-40.148438 27.25 27.242188c3.902344 3.90625 10.234375 3.90625 14.140625 0l51.261719-51.261719c.789062 4.734375 4.894531 8.347656 9.855469 8.347656 5.519531 0 10-4.476562 10-10v-25.707031c0-5.523438-4.480469-10-10-10h-25.710938c-5.523438 0-10 4.476562-10 10 0 5.519531 4.476562 10 10 10h4.933594l-47.410156 47.410156-27.246094-27.246094c-3.90625-3.902343-10.238282-3.902343-14.144532 0l-33.078124 33.078126v-75.246094c0-5.519532-4.476563-10-10-10-5.523438 0-10 4.480468-10 10v128.128906c0 5.523438 4.476562 10 10 10zm0 0"/><path d="m55.804688 275h152c5.523437 0 10-4.476562 10-10s-4.476563-10-10-10h-152c-5.523438 0-10 4.476562-10 10s4.476562 10 10 10zm0 0"/><path d="m217.804688 337c0-5.523438-4.476563-10-10-10h-152c-5.523438 0-10 4.476562-10 10s4.476562 10 10 10h152c5.523437 0 10-4.476562 10-10zm0 0"/><path d="m303.058594 203.128906c2.632812 0 5.210937-1.070312 7.070312-2.929687 1.871094-1.859375 2.929688-4.4375 2.929688-7.070313 0-2.640625-1.058594-5.207031-2.929688-7.070312-1.859375-1.867188-4.429687-2.929688-7.070312-2.929688-2.628906 0-5.207032 1.0625-7.070313 2.929688-1.859375 1.863281-2.929687 4.433594-2.929687 7.070312 0 2.632813 1.070312 5.210938 2.929687 7.070313 1.863281 1.859375 4.441407 2.929687 7.070313 2.929687zm0 0"/><path d="m303.058594 131c2.640625 0 5.210937-1.070312 7.070312-2.929688 1.871094-1.859374 2.929688-4.441406 2.929688-7.070312s-1.058594-5.210938-2.929688-7.070312c-1.859375-1.859376-4.429687-2.929688-7.070312-2.929688-2.628906 0-5.207032 1.070312-7.070313 2.929688-1.859375 1.859374-2.929687 4.441406-2.929687 7.070312s1.070312 5.210938 2.929687 7.070312c1.863281 1.859376 4.441407 2.929688 7.070313 2.929688zm0 0"/><path d="m303.058594 275.058594c2.640625 0 5.210937-1.058594 7.070312-2.929688 1.871094-1.859375 2.929688-4.429687 2.929688-7.070312 0-2.628906-1.058594-5.207032-2.929688-7.066406-1.859375-1.859376-4.429687-2.933594-7.070312-2.933594-2.628906 0-5.207032 1.070312-7.070313 2.933594-1.859375 1.859374-2.929687 4.4375-2.929687 7.066406 0 2.632812 1.070312 5.210937 2.929687 7.070312 1.863281 1.871094 4.441407 2.929688 7.070313 2.929688zm0 0"/><path d="m303.058594 347c2.632812 0 5.210937-1.070312 7.082031-2.929688 1.859375-1.859374 2.917969-4.441406 2.917969-7.070312s-1.058594-5.210938-2.917969-7.070312c-1.871094-1.859376-4.449219-2.929688-7.082031-2.929688-2.628906 0-5.207032 1.070312-7.070313 2.929688-1.859375 1.859374-2.929687 4.441406-2.929687 7.070312s1.070312 5.210938 2.929687 7.070312c1.871094 1.859376 4.441407 2.929688 7.070313 2.929688zm0 0"/><path d="m354 203.128906h101.0625c5.523438 0 10-4.480468 10-10 0-5.523437-4.476562-10-10-10h-101.0625c-5.523438 0-10 4.476563-10 10 0 5.519532 4.476562 10 10 10zm0 0"/><path d="m354 131h101.0625c5.523438 0 10-4.476562 10-10s-4.476562-10-10-10h-101.0625c-5.523438 0-10 4.476562-10 10s4.476562 10 10 10zm0 0"/><path d="m354 275.0625h101.0625c5.523438 0 10-4.476562 10-10s-4.476562-10-10-10h-101.0625c-5.523438 0-10 4.476562-10 10s4.476562 10 10 10zm0 0"/><path d="m354 347h101.0625c5.523438 0 10-4.476562 10-10s-4.476562-10-10-10h-101.0625c-5.523438 0-10 4.476562-10 10s4.476562 10 10 10zm0 0"/></svg>