<?xml version="1.0" encoding="utf-8"?>
<!-- Generator: Adobe Illustrator 18.1.1, SVG Export Plug-In . SVG Version: 6.00 Build 0)  -->
<svg version="1.1" id="Capa_1" xmlns="http://www.w3.org/2000/svg" xmlns:xlink="http://www.w3.org/1999/xlink" x="0px" y="0px"
	 width="1000px" height="1000px" viewBox="0 0 1000 1000" enable-background="new 0 0 1000 1000" xml:space="preserve">
<g>
	<path d="M960.1,919.9V567.4c0-14.4-8.8-27.3-22.2-32.6L603.5,403.9V81.1c0-19.3-15.7-35-35-35H78.9c-19.3,0-35,15.7-35,35v838.8
		c0,19.3,15.7,35,35,35h162.8v-70.8c0-45.3,36.7-82.1,82.1-82.1h0c45.3,0,82.1,36.7,82.1,82.1v70.8h197.8h321.6
		C944.4,954.9,960.1,939.3,960.1,919.9z M258.5,730.6H151.6v-91.7c0-29.5,23.9-53.4,53.4-53.4c29.5,0,53.4,23.9,53.4,53.4V730.6z
		 M258.5,510.6H151.6v-91.7c0-29.5,23.9-53.4,53.4-53.4c29.5,0,53.4,23.9,53.4,53.4V510.6z M258.5,290.5H151.6v-91.7
		c0-29.5,23.9-53.4,53.4-53.4c29.5,0,53.4,23.9,53.4,53.4V290.5z M495.8,730.6H388.9v-91.7c0-29.5,23.9-53.4,53.4-53.4
		c29.5,0,53.4,23.9,53.4,53.4V730.6z M495.8,510.6H388.9v-91.7c0-29.5,23.9-53.4,53.4-53.4c29.5,0,53.4,23.9,53.4,53.4V510.6z
		 M495.8,290.5H388.9v-91.7c0-29.5,23.9-53.4,53.4-53.4c29.5,0,53.4,23.9,53.4,53.4V290.5z M879.5,781.2H684.2V528.5L879.5,605
		V781.2z"/>
	<path d="M644,46.1v267.1h267.1c19.3,0,35-15.7,35-35V81.1c0-19.3-15.7-35-35-35H644z M867.5,252.2c0,11-9,20-20,20h-4.7
		c-11,0-20-9-20-20v-55.1h-58v55.1c0,11-9,20-20,20h-4.7c-11,0-20-9-20-20V110.4c0-11,9-20,20-20h4.7c11,0,20,9,20,20V158h58v-47.6
		c0-11,9-20,20-20h4.7c11,0,20,9,20,20V252.2z"/>
</g>
</svg>
