<svg height="512pt" viewBox="0 0 512 512" width="512pt" xmlns="http://www.w3.org/2000/svg"><path d="m407 512c-8.285156 0-15-6.714844-15-15v-31c0-8.285156 6.714844-15 15-15s15 6.714844 15 15v31c0 8.285156-6.714844 15-15 15zm0 0" fill="#d9e7ec"/><path d="m497 301c-8.285156 0-15-6.714844-15-15v-90c0-8.269531-6.730469-15-15-15h-30c-8.285156 0-15-6.714844-15-15v-60c0-8.269531-6.730469-15-15-15s-15 6.730469-15 15v60c0 8.285156-6.714844 15-15 15s-15-6.714844-15-15v-60c0-24.8125 20.1875-45 45-45s45 20.1875 45 45v45h15c24.8125 0 45 20.1875 45 45v90c0 8.285156-6.714844 15-15 15zm0 0" fill="#d9e7ec"/><path d="m317 512h-302c-8.285156 0-15-6.714844-15-15v-452c0-8.285156 6.714844-15 15-15h91c8.285156 0 15 6.714844 15 15s-6.714844 15-15 15h-76v422h272v-422h-76c-8.285156 0-15-6.714844-15-15s6.714844-15 15-15h91c8.285156 0 15 6.714844 15 15v452c0 8.285156-6.714844 15-15 15zm0 0" fill="#54469d"/><path d="m270.992188 180.726562c-.003907-.144531-.007813-.289062-.015626-.433593-.019531-.394531-.046874-.785157-.097656-1.175781-.003906-.046876-.011718-.09375-.019531-.136719-.054687-.398438-.125-.789063-.210937-1.175781-.023438-.105469-.046876-.207032-.070313-.3125-.101563-.414063-.210937-.824219-.347656-1.226563-.003907-.015625-.011719-.03125-.015625-.046875-.128906-.390625-.28125-.769531-.445313-1.148438-.039062-.097656-.082031-.195312-.128906-.292968-.171875-.375-.355469-.746094-.554687-1.109375-.039063-.0625-.078126-.128907-.117188-.191407-.171875-.300781-.355469-.589843-.550781-.878906-.078125-.113281-.152344-.226562-.234375-.339844-.226563-.316406-.464844-.625-.714844-.925781-.082031-.097656-.171875-.191406-.257812-.289062-.203126-.226563-.410157-.445313-.625-.660157-.101563-.101562-.203126-.207031-.3125-.308593-.289063-.269531-.585938-.53125-.898438-.78125-.097656-.078125-.199219-.152344-.300781-.226563-.277344-.210937-.5625-.414062-.855469-.605468-.082031-.054688-.164062-.113282-.25-.164063-.027344-.019531-.054688-.039063-.082031-.058594-.347657-.214843-.707031-.40625-1.066407-.59375-.039062-.019531-.074218-.042969-.113281-.0625l-90-45c-4.222656-2.109375-9.191406-2.109375-13.414062 0l-90 45c-.039063.019531-.074219.042969-.109375.0625-.363282.183594-.71875.378907-1.070313.59375-.027343.019531-.054687.039063-.082031.058594-.085938.050781-.167969.109375-.25.164063-.292969.191406-.578125.394531-.855469.605468-.101562.074219-.203125.148438-.300781.226563-.3125.25-.609375.511719-.898438.78125-.109374.101562-.210937.207031-.3125.308593-.214843.214844-.421874.433594-.625.660157-.085937.097656-.175781.191406-.257812.289062-.25.300781-.488281.609375-.714844.925781-.082031.113282-.15625.226563-.234375.339844-.195312.289063-.378906.578125-.550781.878906-.039062.0625-.082031.125-.117188.191407-.199218.363281-.382812.734375-.554687 1.109375-.046875.097656-.089844.195312-.128906.292968-.164063.378907-.316407.757813-.445313 1.148438-.003906.015625-.011718.03125-.015625.046875-.136719.402344-.246093.8125-.347656 1.226563-.023437.105468-.046875.207031-.070313.3125-.085937.386718-.15625.777343-.210937 1.175781-.007813.046875-.015625.089843-.019531.136719-.050782.390624-.078125.78125-.097656 1.175781-.007813.144531-.011719.289062-.015626.433593 0 .089844-.007812.183594-.007812.273438v120c0 5.683594 3.210938 10.875 8.292969 13.417969l90 45c.085937.042969.179687.074219.269531.113281.363281.171875.726562.332031 1.105469.476562.152343.054688.304687.113282.460937.167969.371094.125.75.238281 1.136719.335938.152344.039062.304687.085937.460937.117187.398438.089844.804688.15625 1.21875.214844.136719.015625.273438.046875.410157.0625.53125.058594 1.066406.089844 1.613281.089844.007812 0 .019531.003906.035156.003906.011719 0 .019532-.003906.03125-.003906.546875 0 1.082032-.03125 1.613282-.089844.136718-.015625.273437-.046875.414062-.0625.410156-.058594.816406-.125 1.214844-.214844.15625-.035156.308594-.078125.460937-.117187.386719-.097657.765625-.207031 1.140625-.335938.152344-.054687.304688-.113281.457032-.171875.378906-.140625.742187-.300781 1.105468-.472656.085938-.042969.179688-.070312.269532-.117188l90-45c5.078124-2.539062 8.289062-7.730468 8.289062-13.414062v-120c0-.089844-.007812-.183594-.007812-.273438zm-104.992188-27.957031 56.460938 28.230469-56.460938 28.230469-56.460938-28.230469zm-75 52.5 60 30v86.460938l-60-30zm150 86.460938-60 30v-86.460938l60-30zm0 0" fill="#b5baf3"/><path d="m256 421h-180c-8.285156 0-15-6.714844-15-15s6.714844-15 15-15h180c8.285156 0 15 6.714844 15 15s-6.714844 15-15 15zm0 0" fill="#b6c4cf"/><path d="m196 90h-60c-24.8125 0-45-20.1875-45-45s20.1875-45 45-45h60c24.8125 0 45 20.1875 45 45s-20.1875 45-45 45zm-60-60c-8.269531 0-15 6.730469-15 15s6.730469 15 15 15h60c8.269531 0 15-6.730469 15-15s-6.730469-15-15-15zm0 0" fill="#25d9f8"/><path d="m407 481c-5.683594 0-10.875-3.210938-13.414062-8.292969l-30-60c-1.042969-2.082031-1.585938-4.378906-1.585938-6.707031v-240c0-8.285156 6.714844-15 15-15h60c8.285156 0 15 6.714844 15 15v240c0 2.328125-.542969 4.625-1.585938 6.707031l-30 60c-2.539062 5.082031-7.730468 8.292969-13.414062 8.292969zm-15-78.539062 15 30 15-30v-221.460938h-30zm45 3.539062h.011719zm0 0" fill="#76e2f8"/></svg>