<svg height="511pt" viewBox="0 0 511.99991 511" width="511pt" xmlns="http://www.w3.org/2000/svg"><path d="m13.179688 392.984375c-17.570313 17.570313-17.574219 46.007813 0 63.582031l42.386718 42.386719c17.53125 17.527344 46.054688 17.53125 63.582032 0 13.636718-13.636719 16.660156-33.921875 9.082031-50.515625l127.746093-114.734375 127.777344 114.738281c-7.578125 16.589844-4.554687 36.875 9.082032 50.511719 17.53125 17.53125 46.054687 17.53125 63.582031 0l42.390625-42.386719c17.527344-17.53125 17.527344-46.050781 0-63.582031-13.636719-13.636719-33.921875-16.660156-50.515625-9.082031l-110.765625-123.363282 150.558594-134.890624c30.585937-27.367188 32.136718-74.878907 2.890624-104.128907-29.097656-29.097656-76.628906-27.839843-104.09375 2.859375l-130.867187 145.382813-130.511719-145.347657c-27.367187-30.585937-74.882812-32.136718-104.128906-2.890624-29.179688 29.179687-27.765625 76.695312 2.871094 104.105468l150.257812 134.921875-110.796875 123.339844c-16.277343-7.472656-36.617187-4.820313-50.527343 9.09375zm73.625 10.042969 54.441406-60.601563 28.46875 28.464844-60.609375 54.4375zm11.152343 74.730468c-5.84375 5.84375-15.351562 5.84375-21.195312 0l-42.386719-42.386718c-5.859375-5.859375-5.859375-15.335938 0-21.195313 5.855469-5.855469 15.335938-5.855469 21.191406 0l42.386719 42.390625c5.84375 5.84375 5.84375 15.351563.003906 21.191406zm379.65625-63.582031c5.84375 5.84375 5.84375 15.351563 0 21.195313l-42.386719 42.386718c-5.84375 5.84375-15.351562 5.84375-21.195312 0-5.84375-5.839843-5.84375-15.34375-.003906-21.1875l42.398437-42.398437c5.84375-5.839844 15.347657-5.835937 21.1875.003906zm-74.734375 11.152344-60.390625-54.226563 28.46875-28.46875 54.226563 60.394532zm6.308594-380.929687c15.960938-17.835938 43.613281-18.667969 60.59375-1.683594 16.960938 16.957031 16.191406 44.601562-1.6875 60.601562l-150.59375 134.921875-41.347656-46.050781zm-366.617188-1.683594c16.890626-16.890625 44.5625-16.238282 60.613282 1.703125l247.71875 275.882812-30.746094 30.746094-275.902344-247.738281c-17.800781-15.925782-18.699218-43.574219-1.683594-60.59375zm190.976563 270.847656-41.5 37.273438-30.742187-30.742188 35.503906-39.519531zm0 0"/><path d="m316.152344 60.527344c0-33.054688-26.890625-59.945313-59.945313-59.945313-33.054687 0-59.945312 26.890625-59.945312 59.945313 0 33.054687 26.890625 59.945312 59.945312 59.945312 33.054688 0 59.945313-26.890625 59.945313-59.945312zm-89.917969 0c0-16.527344 13.445313-29.972656 29.972656-29.972656 16.527344 0 29.972657 13.445312 29.972657 29.972656s-13.445313 29.972656-29.972657 29.972656c-16.527343 0-29.972656-13.445312-29.972656-29.972656zm0 0"/></svg>